<svg version="1.1" id="Layer_1" xmlns="http://www.w3.org/2000/svg" xmlns:xlink="http://www.w3.org/1999/xlink" x="0px" y="0px"
	 width="100%" viewBox="0 0 208 192" enable-background="new 0 0 208 192" xml:space="preserve">
<path fill="#000000" opacity="1.000000" stroke="none" 
	d="
M97.056496,185.797485 
	C93.267960,185.416702 90.122917,184.309067 87.566032,182.044708 
	C65.699631,162.680069 46.165745,141.436569 34.761856,114.005882 
	C16.738049,70.651779 43.774487,29.810053 79.664078,20.367590 
	C115.831184,10.852112 152.134369,30.596104 163.631241,66.371468 
	C165.663788,72.696251 166.664215,79.302124 166.353256,86.035110 
	C166.116119,91.169563 163.142624,94.641052 158.669601,94.786049 
	C154.322433,94.926956 151.126953,92.010139 150.653336,86.957047 
	C149.728561,77.090431 147.860550,67.634506 142.467346,58.997776 
	C130.680054,40.121532 108.701187,30.872080 85.795357,35.539730 
	C66.454628,39.480896 49.759434,57.581615 46.142128,77.810944 
	C43.180603,94.372879 48.978867,108.638733 57.046944,122.294716 
	C67.134041,139.368088 80.527847,153.722702 95.182877,166.942612 
	C96.398483,168.039185 97.770454,169.155487 99.273613,169.703537 
	C103.547325,171.261734 106.147102,174.105408 105.690964,178.659134 
	C105.225136,183.309647 101.911591,185.423889 97.056496,185.797485 
z"/>
<path fill="#000000" opacity="1.000000" stroke="none" 
	d="
M170.258118,113.632263 
	C176.375168,117.708061 182.074692,121.760292 188.003799,125.442909 
	C193.358719,128.768906 196.682541,133.305206 196.839676,139.581512 
	C197.097534,149.881805 197.531647,160.232117 196.819061,170.486816 
	C196.120239,180.543457 190.174103,185.784195 180.070007,186.009964 
	C165.772125,186.329483 151.455109,186.371078 137.159180,186.014206 
	C125.782822,185.730225 119.976875,179.360367 119.802803,167.848358 
	C119.674553,159.366394 119.685493,150.879669 119.804893,142.397446 
	C119.903954,135.360031 122.248253,129.537430 128.690369,125.648148 
	C134.805038,121.956573 140.775833,117.979828 146.526855,113.744171 
	C154.384171,107.957222 162.062378,107.767372 170.258118,113.632263 
M150.596451,162.339661 
	C150.628281,159.509109 150.469589,156.660339 150.737793,153.852371 
	C151.115646,149.895935 154.718323,146.868942 158.603119,146.912323 
	C162.567780,146.956589 165.874771,149.959412 166.260666,154.056976 
	C166.447357,156.039307 166.300766,158.051376 166.343353,160.049179 
	C166.565582,170.473129 164.211670,169.636536 176.357864,169.723801 
	C179.639282,169.747375 180.803543,168.371826 180.694550,165.220993 
	C180.556488,161.228989 180.204483,157.158478 180.780396,153.244812 
	C182.147888,143.951767 179.496796,137.207840 170.451660,133.284073 
	C167.147263,131.850632 164.278687,129.377853 161.285507,127.273628 
	C159.237762,125.834061 157.494537,125.872261 155.392593,127.350609 
	C150.088608,131.080994 144.675827,134.662186 139.219971,138.168304 
	C137.176819,139.481308 136.271591,141.093460 136.296326,143.511078 
	C136.371307,150.838364 136.309189,158.166946 136.324326,165.494995 
	C136.327026,166.805252 136.006714,168.647766 137.392944,169.094437 
	C141.088547,170.285248 145.061249,170.166687 148.729340,169.325623 
	C151.760941,168.630508 150.266113,165.415802 150.596451,162.339661 
z"/>
<path fill="#000000" opacity="1.000000" stroke="none" 
	d="
M92.472870,117.233025 
	C77.971230,113.708511 69.612778,104.990555 67.180603,90.575768 
	C64.361908,73.870155 77.680321,57.109116 95.902534,55.969601 
	C113.416626,54.874371 126.882629,67.654434 128.451370,84.281143 
	C130.078049,101.521912 115.943542,120.156380 92.472870,117.233025 
M95.977951,101.359962 
	C102.515663,101.615219 107.604332,99.207390 110.743706,93.274178 
	C113.513245,88.039948 112.946175,82.987549 109.561218,78.292946 
	C105.800125,73.076691 99.040314,70.999207 93.174240,73.027542 
	C86.864944,75.209145 83.067947,80.833206 83.330849,87.607452 
	C83.578835,93.997635 88.019241,99.042130 95.977951,101.359962 
z"/>
</svg>